<?xml version="1.0" encoding="UTF-8"?>
<svg version="1.1" xmlns="http://www.w3.org/2000/svg" width="1536" height="1024">
<path d="M0 0 C506.88 0 1013.76 0 1536 0 C1536 337.92 1536 675.84 1536 1024 C1029.12 1024 522.24 1024 0 1024 C0 686.08 0 348.16 0 0 Z " fill="#01030B" transform="translate(0,0)"/>
<path d="M0 0 C13.32326447 9.2140511 21.13020205 21.49788619 24.40625 37.38671875 C24.70752736 39.63793014 24.85047566 41.84339636 24.9375 44.11328125 C24.9890625 45.12648438 25.040625 46.1396875 25.09375 47.18359375 C25.72111159 70.13457209 18.70569849 93.06887964 2.9375 110.11328125 C-16.12419796 128.84529575 -39.9721013 137.67233549 -66.61889648 137.46875 C-85.93344498 136.96248064 -105.41737889 131.47079824 -119.0625 117.11328125 C-130.30264846 103.36159779 -134.61975861 90.41387209 -134.4375 72.61328125 C-134.44910156 71.48019531 -134.46070313 70.34710938 -134.47265625 69.1796875 C-134.39890742 47.71877663 -125.32423549 29.13120359 -110.7421875 13.70703125 C-97.39664398 0.78947892 -81.98996331 -6.16235137 -64.0625 -9.88671875 C-63.44165527 -10.06178955 -62.82081055 -10.23686035 -62.18115234 -10.41723633 C-42.3563403 -14.81031233 -17.19252419 -10.59182294 0 0 Z " fill="#EEC04B" transform="translate(876.0625,434.88671875)"/>
<path d="M0 0 C8.78919382 -0.06988883 17.57829017 -0.12300682 26.36770248 -0.15543652 C30.45015108 -0.17101078 34.53240785 -0.1920959 38.61474609 -0.22631836 C42.56348778 -0.25920907 46.51204638 -0.27691475 50.46091461 -0.28463173 C51.95821255 -0.29012248 53.45550188 -0.30084251 54.95272064 -0.31719017 C68.90426698 -0.46329374 80.86183582 0.99198715 92 10 C98.74466673 16.88488849 102.46263527 25.35337083 102.60742188 34.95410156 C102.59259766 35.87674805 102.57777344 36.79939453 102.5625 37.75 C102.54606445 39.19971191 102.54606445 39.19971191 102.52929688 40.67871094 C102.15170424 53.20219984 98.01634502 63.06473722 89 72 C84.2716942 75.82728249 76.24478946 82 70 82 C78.68290655 97.01460805 87.52182326 111.92056142 96.59643555 126.7019043 C97.05961182 127.46027588 97.52278809 128.21864746 98 129 C98.55405518 129.88018799 99.10811035 130.76037598 99.67895508 131.66723633 C101 134 101 134 101 136 C89.12 136 77.24 136 65 136 C62.751875 131.7925 60.50375 127.585 58.1875 123.25 C56.5746365 120.27471213 56.5746365 120.27471213 54.96014404 117.30030823 C52.17583408 112.16597769 49.49870934 107.02720502 47.046875 101.72265625 C43.55084873 93.1992978 43.55084873 93.1992978 37.17089844 87.07763672 C33.03994296 85.9836642 29.16002673 86.24694407 25 87 C25.01015137 87.61156952 25.02030273 88.22313904 25.03076172 88.85324097 C25.08652124 94.80194264 24.77025813 100.59717966 24.125 106.5078125 C23.99182373 107.78505692 23.99182373 107.78505692 23.85595703 109.08810425 C23.57546436 111.76760412 23.28786784 114.44628352 23 117.125 C22.80681808 118.95828349 22.61410565 120.79161652 22.421875 122.625 C21.95419988 127.08404034 21.47689343 131.54189799 21 136 C10.11 136 -0.78 136 -12 136 C-12 127.51697313 -11.95857743 119.5525822 -11.046875 111.20703125 C-10.94669571 110.23338623 -10.84651642 109.25974121 -10.74330139 108.2565918 C-10.52907287 106.18096736 -10.31173421 104.10566184 -10.09146118 102.03067017 C-9.50364549 96.49068194 -8.93954958 90.94825193 -8.37109375 85.40625 C-8.2551738 84.28297806 -8.13925385 83.15970612 -8.01982117 82.00239563 C-6.88174155 70.94540513 -5.83339349 59.88084729 -4.8125 48.8125 C-4.72990936 47.92073059 -4.64731873 47.02896118 -4.56222534 46.11016846 C-3.52605928 34.91525711 -2.50637599 23.71882598 -1.5949707 12.51293945 C-1.52882568 11.71847412 -1.46268066 10.92400879 -1.39453125 10.10546875 C-1.31489136 9.11776489 -1.31489136 9.11776489 -1.23364258 8.11010742 C-0.9321177 5.38693132 -0.45710319 2.70093368 0 0 Z " fill="#FBFBFB" transform="translate(368,424)"/>
<path d="M0 0 C1.72428978 -0.01441132 1.72428978 -0.01441132 3.4834137 -0.02911377 C5.3690226 -0.03548859 5.3690226 -0.03548859 7.29272461 -0.04199219 C8.58512558 -0.04769226 9.87752655 -0.05339233 11.20909119 -0.05926514 C13.96068718 -0.0698002 16.71225384 -0.07562274 19.46386719 -0.07910156 C22.25794814 -0.08344857 25.05171373 -0.09718385 27.84570312 -0.12011719 C74.37273233 -0.49475103 74.37273233 -0.49475103 90.60375977 14.79321289 C98.71123825 22.94015376 101.64884295 32.65456732 101.94506836 43.91113281 C101.66892081 58.30148837 96.90331266 69.83392595 87.07006836 80.41113281 C71.29370394 95.18959467 51.58008162 98.39404437 30.63256836 98.22363281 C29.57166992 98.21912109 28.51077148 98.21460938 27.41772461 98.20996094 C24.82261238 98.19827124 22.22762127 98.18188557 19.63256836 98.16113281 C19.64344482 98.87688477 19.65432129 99.59263672 19.66552734 100.33007812 C19.71223628 105.63087559 19.58807956 110.67039557 18.69506836 115.91113281 C17.61501997 123.28087475 17.12803275 130.72916701 16.63256836 138.16113281 C5.08256836 138.16113281 -6.46743164 138.16113281 -18.36743164 138.16113281 C-18.03743164 133.87113281 -17.70743164 129.58113281 -17.36743164 125.16113281 C-17.22635986 123.26266602 -17.08528809 121.36419922 -16.93994141 119.40820312 C-15.69404994 102.70025976 -14.23214279 86.01541422 -12.70800781 69.33105469 C-12.3667947 65.59522184 -12.02935517 61.85905816 -11.69284725 58.12279892 C-11.42935102 55.20238765 -11.16374863 52.28217083 -10.89752388 49.36200714 C-10.77205383 47.98265046 -10.64726609 46.60323152 -10.52320671 45.22374725 C-10.35097642 43.31172836 -10.17555327 41.3999979 -10 39.48828125 C-9.90166367 38.40754333 -9.80332733 37.32680542 -9.70201111 36.21331787 C-9.36838304 33.16981195 -8.88342433 30.17834526 -8.36743164 27.16113281 C-8.17600355 25.08383889 -8.01031358 23.00404822 -7.86743164 20.92285156 C-7.78493164 19.77365234 -7.70243164 18.62445313 -7.61743164 17.44042969 C-7.44941207 15.02646097 -7.28276696 12.61239623 -7.11743164 10.19824219 C-7.03493164 9.05548828 -6.95243164 7.91273438 -6.86743164 6.73535156 C-6.79524414 5.68951904 -6.72305664 4.64368652 -6.64868164 3.56616211 C-6.13188472 -0.85307961 -3.99466843 0.02686157 0 0 Z " fill="#DCA11F" transform="translate(1024.367431640625,428.8388671875)"/>
<path d="M0 0 C1.19496094 -0.03738281 2.38992188 -0.07476562 3.62109375 -0.11328125 C15.11574058 -0.2253634 25.44363021 2.51187058 33.85546875 10.67578125 C39.72609728 17.24062293 39.56864088 23.55246823 39.5625 31.9375 C39.56241943 32.96818604 39.56233887 33.99887207 39.56225586 35.06079102 C39.51040281 42.13845956 39.00975898 49.03952834 38.16796875 56.06054688 C37.37561473 62.84148964 36.90998828 69.61974954 36.5625 76.4375 C36.49748291 77.49187256 36.43246582 78.54624512 36.36547852 79.63256836 C36.29864868 81.10028687 36.29864868 81.10028687 36.23046875 82.59765625 C36.16315552 83.90875366 36.16315552 83.90875366 36.09448242 85.24633789 C36.18705322 85.94879639 36.27962402 86.65125488 36.375 87.375 C37.86 88.365 37.86 88.365 39.375 89.375 C38.83361974 94.68052651 37.52245884 98.57920049 35.375 103.375 C32.00016587 103.46267555 28.62562785 103.51561628 25.25 103.5625 C24.29867187 103.58763672 23.34734375 103.61277344 22.3671875 103.63867188 C16.92205434 103.69539201 13.07123427 103.46819277 8.375 100.375 C6.04378305 98.04378305 5.39323856 97.05793269 5.3046875 93.7421875 C5.32789063 92.96101562 5.35109375 92.17984375 5.375 91.375 C4.72015625 91.96667969 4.0653125 92.55835938 3.390625 93.16796875 C-8.11694079 103.13144026 -19.46046388 107.36399149 -34.625 106.375 C-42.65468212 105.20023943 -48.48722078 100.48130133 -53.625 94.375 C-58.51843673 85.84607942 -58.89702727 76.57466068 -56.5 67.1875 C-53.29310065 57.84759037 -47.04065255 52.25632563 -38.625 47.375 C-33.34164542 44.82880502 -28.17665437 43.3498317 -22.4375 42.1875 C-21.58124023 42.0131543 -20.72498047 41.83880859 -19.84277344 41.65917969 C-10.43762136 39.90962282 -1.15088653 40.01017881 8.375 40.375 C8.28745449 38.62408981 8.17926627 36.87420449 8.0625 35.125 C8.00449219 34.15046875 7.94648437 33.1759375 7.88671875 32.171875 C7.29675334 28.94733124 6.77319782 27.61002147 4.375 25.375 C-8.49421514 20.48657241 -21.41169863 23.25003311 -33.625 28.375 C-34.69492187 28.92542969 -35.76484375 29.47585938 -36.8671875 30.04296875 C-39.625 31.375 -39.625 31.375 -42.625 31.375 C-42.68776944 27.70647478 -42.66668994 24.04371433 -42.625 20.375 C-42.64433594 19.4571875 -42.66367187 18.539375 -42.68359375 17.59375 C-42.54432087 11.42860369 -42.54432087 11.42860369 -40.234375 8.78125 C-28.64189586 0.79315513 -13.54104207 0.1576206 0 0 Z " fill="#FAFAFB" transform="translate(527.625,457.625)"/>
<path d="M0 0 C1.17159668 -0.01844971 2.34319336 -0.03689941 3.55029297 -0.0559082 C13.64498385 0.01592241 23.7770871 1.88831613 31.75 8.5 C38.7688319 16.00851785 41.00431326 22.90815251 40.91015625 32.94091797 C40.54718849 41.00699114 39.59489267 49.03531087 38.75 57.0625 C38.36911844 60.68822408 37.99520573 64.31457845 37.625 67.94140625 C37.49375732 69.157463 37.49375732 69.157463 37.35986328 70.39808655 C36.93253386 74.5847273 36.63601433 78.76545966 36.5078125 82.97241211 C36.48090332 83.79108261 36.45399414 84.60975311 36.42626953 85.45323181 C36.53310059 86.12866531 36.63993164 86.80409882 36.75 87.5 C38.235 88.49 38.235 88.49 39.75 89.5 C39.15688872 94.34374212 38.13082963 98.8242639 36.75 103.5 C33.02098186 103.58736736 29.29222835 103.64051482 25.5625 103.6875 C23.97985352 103.72520508 23.97985352 103.72520508 22.36523438 103.76367188 C21.34365234 103.77333984 20.32207031 103.78300781 19.26953125 103.79296875 C17.86344604 103.81653442 17.86344604 103.81653442 16.42895508 103.84057617 C13.20487494 103.43069813 11.3690087 102.39443982 8.75 100.5 C6.88320454 97.83314934 5.78003612 95.59010837 4.75 92.5 C4.15574219 93.01949219 3.56148437 93.53898438 2.94921875 94.07421875 C-4.31084142 100.1826053 -12.4791995 105.88932497 -22.25 106.5 C-23.04792969 106.561875 -23.84585938 106.62375 -24.66796875 106.6875 C-32.97770716 107.06255166 -40.87256061 105.34455146 -47.625 100.25 C-55.4697241 92.03171761 -56.88607122 84.17418867 -56.6484375 73.1015625 C-56.15662193 64.53839067 -51.9506836 58.82229017 -45.875 53.0625 C-30.49626484 40.48223251 -10.20976601 40.21192797 8.75 39.5 C8.81098684 38.06172697 8.85450026 36.62270587 8.890625 35.18359375 C8.91672852 34.38236084 8.94283203 33.58112793 8.96972656 32.75561523 C8.91988847 30.18606699 8.91988847 30.18606699 6.5 27.5625 C-1.03698992 21.90975756 -9.39691403 22.98519155 -18.5 23.75 C-24.61796634 24.97359327 -30.10237528 27.38641681 -35.625 30.25 C-38.25 31.5 -38.25 31.5 -42.25 31.5 C-42.38307183 28.1584186 -42.35431822 24.84252973 -42.25 21.5 C-42.2190625 20.45714844 -42.188125 19.41429687 -42.15625 18.33984375 C-41.47261467 10.67743108 -41.47261467 10.67743108 -38.453125 7.76953125 C-35.77226931 6.30765525 -33.16906011 5.39845443 -30.25 4.5 C-29.18265625 4.11199219 -28.1153125 3.72398437 -27.015625 3.32421875 C-18.07059445 0.53129612 -9.34524264 0.08651866 0 0 Z " fill="#FBFBFB" transform="translate(677.25,457.5)"/>
<path d="M0 0 C33.66 0 67.32 0 102 0 C100 26 100 26 98 28 C95.56255103 28.17488254 93.2406392 28.23177405 90.8046875 28.1953125 C90.09724396 28.1924826 89.38980042 28.18965271 88.66091919 28.18673706 C86.3987749 28.17553137 84.13702485 28.15042679 81.875 28.125 C80.34245363 28.11497067 78.80990106 28.10584474 77.27734375 28.09765625 C73.51807699 28.07559086 69.75910536 28.04105896 66 28 C65.95512451 28.71091797 65.91024902 29.42183594 65.86401367 30.15429688 C64.91575185 44.97693998 63.81544846 59.77372396 62.4375 74.5625 C62.37356049 75.25939941 62.30962097 75.95629883 62.2437439 76.67431641 C62.06072741 78.65952429 61.87227264 80.64422853 61.68359375 82.62890625 C61.57587646 83.76400635 61.46815918 84.89910645 61.35717773 86.06860352 C61 89 61 89 60.48852539 90.97631836 C59.78584868 93.88710661 59.67948813 96.76280461 59.5 99.75 C59.4390918 100.73093628 59.4390918 100.73093628 59.37695312 101.73168945 C59.2477884 103.82092893 59.12362628 105.91042612 59 108 C58.06373117 123.50329519 58.06373117 123.50329519 57.5 130.9375 C57.4278125 131.89527344 57.355625 132.85304688 57.28125 133.83984375 C57 136 57 136 56 137 C53.3337397 137.08855161 50.69352886 137.11524673 48.02734375 137.09765625 C47.22970108 137.0962413 46.43205841 137.09482635 45.61024475 137.09336853 C43.05262565 137.08775316 40.49509282 137.07519812 37.9375 137.0625 C36.20768355 137.05748698 34.47786574 137.05292373 32.74804688 137.04882812 C28.49866447 137.03777875 24.24934688 137.02050386 20 137 C19.802178 127.30672217 19.90324664 118.01790855 21.46972656 108.41943359 C22.32149843 102.9268384 22.74641659 97.40187333 23.20492554 91.86468506 C23.50695684 88.22025714 23.82270201 84.57700516 24.13671875 80.93359375 C24.20343277 80.15594666 24.27014679 79.37829956 24.33888245 78.5770874 C25.23611439 68.17162829 26.21487679 57.77362957 27.1875 47.375 C27.36833669 45.43855886 27.54916374 43.50211683 27.72998047 41.56567383 C28.15234568 37.04369044 28.57621092 32.52185097 29 28 C18.77 28 8.54 28 -2 28 C-2 16 -2 16 0 0 Z " fill="#E7B232" transform="translate(906,430)"/>
<path d="M0 0 C2.64 0 5.28 0 8 0 C8.21914063 1.258125 8.43828125 2.51625 8.6640625 3.8125 C11.51504135 19.47904397 14.59821994 35.25415809 26.6875 46.5 C32.45118016 49.10996838 38.25673162 48.84408258 44.25 47 C53.321965 40.40220727 57.37726846 30.89384621 62 21 C61.01 19.515 61.01 19.515 60 18 C59.57339537 14.08945759 59.41353719 11.87969422 61.625 8.5625 C64.73543691 6.51615993 66.33677666 6.40192272 70 7 C72.875 8.625 72.875 8.625 75 11 C75.58338557 14.50031342 75.40455522 16.26794769 73.6875 19.375 C72 21 72 21 69 21 C69.08109802 25.54238548 69.19392752 30.08345039 69.3125 34.625 C69.33505859 35.91019531 69.35761719 37.19539063 69.38085938 38.51953125 C69.41630859 39.76347656 69.45175781 41.00742187 69.48828125 42.2890625 C69.51446533 43.43068848 69.54064941 44.57231445 69.56762695 45.74853516 C70.07518592 49.56540153 71.20336949 53.20336949 74 56 C77.36591458 56.54953707 79.8771359 56.6565507 82.890625 54.89453125 C89.40784292 49.52974821 96.20512899 41.58974202 100 34 C101.65 34.33 103.3 34.66 105 35 C106.61871887 39.02197019 105.28497147 41.76234877 103.8125 45.6875 C103.34972656 46.92371094 102.88695312 48.15992188 102.41015625 49.43359375 C100.45428599 54.38015758 98.37893 59.24214001 96 64 C94.25173018 64.45455015 92.49997764 64.89751421 90.73828125 65.296875 C87.12335937 66.2251003 83.60218526 67.38302421 80.0625 68.5625 C79.38751465 68.78462158 78.7125293 69.00674316 78.01708984 69.2355957 C74.75008394 70.15507198 74.75008394 70.15507198 72 72 C70.06640625 71.94921875 70.06640625 71.94921875 67.5625 71.6875 C66.75941406 71.60886719 65.95632813 71.53023438 65.12890625 71.44921875 C62.4833249 71.06939122 59.92172058 70.5774216 57.30859375 70.02734375 C15.85475352 61.60589137 -31.49474634 66.36712663 -71.86328125 77.203125 C-74.89805891 77.97410214 -77.90545488 78.53183886 -81 79 C-84.1712028 74.29243807 -85.93151037 69.16607604 -87.875 63.875 C-90.36524478 57.17557534 -92.91311954 50.61956036 -96.1875 44.25390625 C-97.20851578 41.4215692 -97.13750964 38.98653746 -97 36 C-94.525 35.505 -94.525 35.505 -92 35 C-91.64284912 35.4532666 -91.28569824 35.9065332 -90.91772461 36.37353516 C-89.26470345 38.46304765 -87.60121292 40.54399217 -85.9375 42.625 C-85.37611328 43.33785156 -84.81472656 44.05070312 -84.23632812 44.78515625 C-77.8456984 53.19835756 -77.8456984 53.19835756 -68.75 57.5 C-65.79637631 57.15090893 -65.79637631 57.15090893 -63 55 C-60.9710979 51.13706934 -60.7043343 47.70820186 -60.5859375 43.38671875 C-60.54726563 42.13955078 -60.50859375 40.89238281 -60.46875 39.60742188 C-60.4378125 38.31384766 -60.406875 37.02027344 -60.375 35.6875 C-60.33632813 34.37458984 -60.29765625 33.06167969 -60.2578125 31.70898438 C-60.16366883 28.47279563 -60.07803648 25.23661065 -60 22 C-60.928125 21.566875 -60.928125 21.566875 -61.875 21.125 C-64 20 -64 20 -66 18 C-66.43244601 14.10798594 -66.57846465 11.86769698 -64.375 8.5625 C-61.24316508 6.50208229 -59.68455227 6.3232455 -56 7 C-52.59492945 9.51679127 -51.17535311 10.90404303 -50.5 15.125 C-51.03432245 18.19735411 -51.54820288 19.16115216 -54 21 C-53.56300781 21.70382812 -53.12601563 22.40765625 -52.67578125 23.1328125 C-51.00678423 25.98839248 -49.59741319 28.88427505 -48.1875 31.875 C-44.97888389 38.33194281 -41.06830284 45.32975226 -34 48 C-27.881256 48.77208126 -22.19530963 48.59975549 -16.77734375 45.453125 C-4.04433536 35.04284121 -2.09291284 15.04434994 0 0 Z " fill="#F7C94E" transform="translate(714,351)"/>
<path d="M0 0 C6.49271348 4.2706663 10.4526462 9.65312551 13 17 C16.14796092 34.05991723 14.21387386 50.13119034 4.58203125 64.859375 C-1.81956031 73.52128161 -10.55025831 79.20750555 -21 82 C-32.44485922 83.39452459 -42.28044372 82.63930281 -52 76 C-52.91458984 75.443125 -52.91458984 75.443125 -53.84765625 74.875 C-59.3817071 71.0252255 -63.15493381 63.63833888 -64.65234375 57.19140625 C-66.35879544 41.52656319 -65.30572558 26.25876755 -56 13 C-41.97919098 -3.68828998 -19.94450904 -11.71108281 0 0 Z " fill="#040917" transform="translate(847,459)"/>
<path d="M0 0 C10.56 0 21.12 0 32 0 C32 11.23362593 32 11.23362593 31.37890625 16.50390625 C31.24871094 17.64738525 31.11851562 18.79086426 30.984375 19.96899414 C30.84515625 21.15485107 30.7059375 22.34070801 30.5625 23.5625 C29.69790814 31.22831648 28.86222697 38.85554309 28.5 46.5625 C28.08741172 55.14949354 27.08433376 63.65100373 26.08154297 72.18701172 C25.38418783 78.20053468 24.84308314 84.13890008 24.625 90.1875 C23.95469489 101.60897342 20.43472917 113.15523599 13 122 C12.47664062 122.63292969 11.95328125 123.26585937 11.4140625 123.91796875 C5.04504697 130.92986613 -4.29708177 135.58561007 -13.79199219 136.17260742 C-16.98883063 136.23215243 -20.17785156 136.22370132 -23.375 136.1875 C-25.03208984 136.1865332 -25.03208984 136.1865332 -26.72265625 136.18554688 C-34.85949096 136.14050904 -34.85949096 136.14050904 -36 135 C-36.08685603 133.43827255 -36.10702219 131.87270656 -36.09765625 130.30859375 C-36.09443359 129.36435547 -36.09121094 128.42011719 -36.08789062 127.44726562 C-36.07951172 126.45404297 -36.07113281 125.46082031 -36.0625 124.4375 C-36.05798828 123.44041016 -36.05347656 122.44332031 -36.04882812 121.41601562 C-36.03700007 118.94395151 -36.02051849 116.47200482 -36 114 C-34.92621094 114.04640625 -33.85242188 114.0928125 -32.74609375 114.140625 C-24.05553827 114.67622711 -24.05553827 114.67622711 -15.75 112.6875 C-7.49107939 104.61628213 -7.91767666 91.13251028 -7.0625 80.3125 C-6.90547632 78.46821435 -6.74690678 76.62405976 -6.58691406 74.7800293 C-6.23925101 70.75234843 -5.89969078 66.72408646 -5.56494141 62.6953125 C-4.95193081 55.36710546 -4.29623891 48.04289797 -3.63671875 40.71875 C-3.52139297 39.43759811 -3.4060672 38.15644623 -3.2872467 36.83647156 C-3.05597262 34.26812164 -2.82463454 31.69977748 -2.5932312 29.13143921 C-1.72055796 19.42169827 -0.86191734 9.7106999 0 0 Z " fill="#FAFAFA" transform="translate(585,461)"/>
<path d="M0 0 C3.79124747 -0.14714061 7.58174654 -0.23467827 11.375 -0.3125 C12.96634766 -0.3753418 12.96634766 -0.3753418 14.58984375 -0.43945312 C22.14933336 -0.55539622 27.68316261 0.73824244 34 5 C39.1100599 10.35933112 39.41597097 14.29212689 39.3359375 21.53515625 C38.73637222 27.71904469 36.53627989 32.54042212 32.0625 36.87890625 C26.87360496 40.95729913 22.1775522 43.27014025 15.48046875 43.1953125 C13.9480957 43.18564453 13.9480957 43.18564453 12.38476562 43.17578125 C11.32966797 43.15902344 10.27457031 43.14226562 9.1875 43.125 C8.11306641 43.11597656 7.03863281 43.10695313 5.93164062 43.09765625 C3.28753146 43.07415306 0.64388128 43.04129575 -2 43 C-2.39692087 28.60059306 -1.18359518 14.34164803 0 0 Z " fill="#070B18" transform="translate(398,446)"/>
<path d="M0 0 C3.64555558 -0.11755481 7.29061474 -0.18769812 10.9375 -0.25 C12.46987305 -0.30027344 12.46987305 -0.30027344 14.03320312 -0.3515625 C20.82391587 -0.43834477 26.1585864 0.38171546 32 4 C36.17694908 8.17694908 38.06585058 12.32396602 38.375 18.1875 C38.22136403 24.76092456 35.62314089 30.3334114 32.25 35.875 C26.86477671 40.96104422 20.33111329 43.14226289 13.015625 43.09765625 C12.08105469 43.09443359 11.14648438 43.09121094 10.18359375 43.08789062 C9.21550781 43.07951172 8.24742188 43.07113281 7.25 43.0625 C5.77466797 43.05573242 5.77466797 43.05573242 4.26953125 43.04882812 C1.84629209 43.03706483 -0.57682273 43.02062684 -3 43 C-3.24542288 32.96493105 -2.8953502 23.06870751 -2.0625 13.0625 C-1.97564941 12.00224609 -1.88879883 10.94199219 -1.79931641 9.84960938 C-1.13177232 2.26354465 -1.13177232 2.26354465 0 0 Z " fill="#050916" transform="translate(1051,457)"/>
<path d="M0 0 C1.0243364 -0.00762863 1.0243364 -0.00762863 2.06936646 -0.01541138 C11.90665098 -0.07440404 21.22395692 0.80260623 30.9375 2.25 C34.24677703 2.65635789 37.55994073 3.01929443 40.875 3.375 C41.66583984 3.46136719 42.45667969 3.54773438 43.27148438 3.63671875 C45.15998337 3.84273682 47.04871448 4.04662561 48.9375 4.25 C48.9375 4.91 48.9375 5.57 48.9375 6.25 C46.54371425 7.44689288 45.1270418 7.35260261 42.45727539 7.31591797 C41.05530663 7.30148399 41.05530663 7.30148399 39.62501526 7.28675842 C38.60536179 7.27205002 37.58570831 7.25734161 36.53515625 7.2421875 C34.35482663 7.22207129 32.17448731 7.20298675 29.99414062 7.18481445 C28.85050049 7.17439117 27.70686035 7.1639679 26.52856445 7.15322876 C-6.81235481 6.68254648 -6.81235481 6.68254648 -39.48681641 12.54760742 C-43.05170167 13.5197567 -46.60590707 14.13595024 -50.25 14.75 C-54.96218436 15.58920871 -59.43667695 16.50134138 -63.86328125 18.3515625 C-67.13731294 19.68908877 -70.4704984 20.84665375 -73.8125 22 C-74.78908569 22.35263916 -74.78908569 22.35263916 -75.78540039 22.71240234 C-79.57684238 24.01268981 -81.03929559 24.2558011 -85.0625 23.25 C-85.7225 19.95 -86.3825 16.65 -87.0625 13.25 C-74.09448327 7.39347631 -60.18805367 5.13733556 -46.125 3.64453125 C-43.15317988 3.43253435 -43.15317988 3.43253435 -41.0625 2.25 C-27.53832047 0.14231317 -13.66102101 0.04073611 0 0 Z " fill="#EFD075" transform="translate(723.0625,423.75)"/>
<path d="M0 0 C4.00220009 3.74079513 6.80315141 7.09713029 7.375 12.625 C7.30094019 17.70735444 5.27753345 21.20817274 2 25 C-3.09693264 28.88337725 -8.85200107 28.64339524 -15 28 C-19.10092219 27.09538481 -21.55755994 25.50065586 -24.375 22.3125 C-26.62794788 17.71995239 -27.77649757 13.93765863 -26.44140625 8.88671875 C-24.42496787 4.12792417 -21.65468286 1.32502933 -17.14453125 -1.16015625 C-11.490493 -3.3743971 -5.47749771 -2.33300829 0 0 Z " fill="#F8F7F9" transform="translate(613,423)"/>
<path d="M0 0 C0.38275518 6.12408291 0.28431027 11.64940181 -3 17 C-7.55498578 22.0085125 -12.11263115 25.46238516 -18.9375 26.40625 C-26.80893264 26.64721222 -26.80893264 26.64721222 -29.890625 24.97265625 C-32.56940018 22.19381188 -33.36094353 19.21565182 -33.625 15.5 C-33.33009599 10.49505768 -31.62371088 8.38213016 -28 5 C-20.04652127 -1.18603901 -9.52830105 -0.24396788 0 0 Z " fill="#0B0E1A" transform="translate(685,515)"/>
<path d="M0 0 C0.68384766 0.00902344 1.36769531 0.01804687 2.07226562 0.02734375 C3.73583287 0.05061042 5.39921631 0.08646833 7.0625 0.125 C7.57805149 6.99901984 7.88060649 12.69766825 3.6953125 18.4375 C-1.31267391 23.61321801 -7.15764045 26.23906114 -14.3125 26.5625 C-18.52505011 26.5011251 -19.62692905 26.3564058 -23.125 23.75 C-25.83336803 19.57335919 -25.93495494 14.89682444 -24.9375 10.125 C-18.80525072 1.89026525 -9.8496442 -0.17432999 0 0 Z " fill="#080B16" transform="translate(526.9375,514.875)"/>
<path d="M0 0 C1.14952652 -0.00960754 2.29905304 -0.01921509 3.4834137 -0.02911377 C5.3690226 -0.03548859 5.3690226 -0.03548859 7.29272461 -0.04199219 C8.58512558 -0.04769226 9.87752655 -0.05339233 11.20909119 -0.05926514 C13.96068718 -0.0698002 16.71225384 -0.07562274 19.46386719 -0.07910156 C22.25794814 -0.08344857 25.05171373 -0.09718385 27.84570312 -0.12011719 C74.36299813 -0.49460743 74.36299813 -0.49460743 90.08569336 14.58691406 C90.59616211 15.10640625 91.10663086 15.62589844 91.63256836 16.16113281 C91.30256836 16.82113281 90.97256836 17.48113281 90.63256836 18.16113281 C89.58069336 17.10925781 89.58069336 17.10925781 88.50756836 16.03613281 C76.73474051 6.22078228 61.5814806 4.85025267 46.97241211 4.96582031 C45.57280175 4.96955808 44.17318875 4.97240143 42.77357483 4.97439575 C39.11903449 4.98197221 35.46465728 5.00156795 31.81018066 5.02380371 C28.06935837 5.0443924 24.3285093 5.0534251 20.58764648 5.06347656 C13.26921336 5.08482057 5.95091386 5.11888257 -1.36743164 5.16113281 C-2.27458852 7.88260344 -2.60522895 9.95178843 -2.83227539 12.78222656 C-2.90905518 13.7083374 -2.98583496 14.63444824 -3.06494141 15.58862305 C-3.14413818 16.58192627 -3.22333496 17.57522949 -3.30493164 18.59863281 C-3.47837188 20.68205289 -3.65287159 22.76538502 -3.82836914 24.84863281 C-3.91699219 25.90179688 -4.00561523 26.95496094 -4.09692383 28.04003906 C-4.50341536 32.73010016 -4.95943345 37.41461145 -5.42993164 42.09863281 C-5.50912842 42.89519287 -5.5883252 43.69175293 -5.66992188 44.51245117 C-5.82123675 46.00892833 -5.97684841 47.50497939 -6.13745117 49.00048828 C-6.29577384 50.48791465 -6.44188591 51.97667487 -6.57788086 53.46630859 C-6.77138158 55.37294701 -7.06094443 57.26936692 -7.36743164 59.16113281 C-8.35743164 59.65613281 -8.35743164 59.65613281 -9.36743164 60.16113281 C-9.39460856 58.09870665 -9.41390744 56.03617578 -9.42993164 53.97363281 C-9.4415332 52.82507813 -9.45313477 51.67652344 -9.46508789 50.49316406 C-9.37874713 47.54721725 -8.94197054 45.03382732 -8.36743164 42.16113281 C-8.3476812 40.09862216 -8.37433647 38.03548864 -8.42993164 35.97363281 C-8.49041043 28.37598445 -8.00780115 20.86040636 -7.42993164 13.28613281 C-7.34300049 12.1141333 -7.25606934 10.94213379 -7.16650391 9.73461914 C-7.07941162 8.64044678 -6.99231934 7.54627441 -6.90258789 6.41894531 C-6.82403564 5.43039551 -6.7454834 4.4418457 -6.66455078 3.42333984 C-6.10204337 -0.85948159 -3.85947413 0.02595248 0 0 Z " fill="#DDB85A" transform="translate(1024.367431640625,428.8388671875)"/>
<path d="M0 0 C0 0.66 0 1.32 0 2 C-4.29 2 -8.58 2 -13 2 C-13.99 0.02 -13.99 0.02 -15 -2 C-22.25928854 -4.78184415 -29.94767635 -4.33169331 -37.625 -4.3125 C-39.57019531 -4.33666992 -39.57019531 -4.33666992 -41.5546875 -4.36132812 C-42.80765625 -4.36197266 -44.060625 -4.36261719 -45.3515625 -4.36328125 C-46.48416504 -4.36626221 -47.61676758 -4.36924316 -48.78369141 -4.37231445 C-52.41433037 -3.95203782 -54.79708646 -2.70455847 -58 -1 C-60 -1 -62 -1 -64 -1 C-64.78375 -0.525625 -65.5675 -0.05125 -66.375 0.4375 C-69 2 -69 2 -72.8125 2.25 C-77.46554432 2.65384913 -79.81117834 5.01316594 -83.04296875 8.2109375 C-85 10 -85 10 -87.4375 11.4609375 C-90.22920301 13.13766157 -92.42249584 15.04146627 -94.8125 17.25 C-97.97005379 20.15306438 -101.15554475 22.9887978 -104.4375 25.75 C-107.34067823 28.29899048 -109.28524509 30.48883519 -111 34 C-111.39960937 34.77730469 -111.79921875 35.55460937 -112.2109375 36.35546875 C-113.94750472 39.75331848 -115.65638727 43.10081421 -117.01953125 46.66796875 C-118.18868903 49.44879423 -119.77577386 50.99819647 -122 53 C-121.41962162 37.91016203 -110.20861465 24.70249689 -99.6875 14.6875 C-74.32290222 -7.31896794 -30.77623316 -16.52797707 0 0 Z " fill="#F3E0A8" transform="translate(868,431)"/>
<path d="M0 0 C33.66 0 67.32 0 102 0 C101.67 3.3 101.34 6.6 101 10 C100.67 10 100.34 10 100 10 C100 7.69 100 5.38 100 3 C88.79477885 2.97679261 77.58956345 2.95904215 66.38432312 2.94818783 C61.18084868 2.94297736 55.97739073 2.93591312 50.77392578 2.92456055 C45.74889973 2.91366635 40.7238895 2.90770933 35.69885254 2.90512276 C33.78519441 2.90328027 31.87153711 2.89968239 29.95788574 2.89426994 C27.27008212 2.88697277 24.58234324 2.88601271 21.89453125 2.88647461 C21.10977921 2.88287933 20.32502716 2.87928406 19.51649475 2.87557983 C14.59386814 2.8846871 9.8742698 3.30241397 5 4 C4.566875 5.299375 4.566875 5.299375 4.125 6.625 C3.4270056 8.7189832 2.70264425 10.80460968 1.9375 12.875 C0.81776273 16.60745756 0.40072867 20.12628957 0 24 C-0.33 24 -0.66 24 -1 24 C-1.02712325 21.12493579 -1.04689851 18.25013092 -1.0625 15.375 C-1.07087891 14.56675781 -1.07925781 13.75851562 -1.08789062 12.92578125 C-1.09111328 12.13300781 -1.09433594 11.34023438 -1.09765625 10.5234375 C-1.10289307 9.80075684 -1.10812988 9.07807617 -1.11352539 8.33349609 C-0.97734286 5.53428619 -0.46073155 2.7643893 0 0 Z " fill="#F4D67A" transform="translate(906,430)"/>
<path d="M0 0 C3.02508145 1.73602105 5.41790069 3.83580137 7 7 C7.2262475 12.0069555 6.69507747 15.16929766 3.4375 19.0625 C-1.03699068 21.58448566 -2.93088294 21.72415958 -8 21 C-11.44312714 18.8755173 -12.71617547 17.85147359 -14 14 C-14.57279236 6.8973747 -14.57279236 6.8973747 -12.125 3.0625 C-8.5135633 -0.44271798 -4.88427301 -0.83367925 0 0 Z " fill="#F8CA50" transform="translate(722,328)"/>
<path d="M0 0 C3.40507055 2.51679127 4.82464689 3.90404303 5.5 8.125 C4.94181771 11.33454817 4.25007768 11.84775178 2 14 C2.22757731 16.16299211 2.22757731 16.16299211 3 18 C2.360625 18.12375 1.72125 18.2475 1.0625 18.375 C0.381875 18.58125 -0.29875 18.7875 -1 19 C-2.58637256 22.17274512 -2.01027754 25.58543295 -1.9375 29.0625 C-1.85649633 37.38584477 -1.97159268 44.91451696 -7 52 C-7.99 51.34 -8.98 50.68 -10 50 C-9.01 49.34 -8.02 48.68 -7 48 C-4.9710979 44.13706934 -4.7043343 40.70820186 -4.5859375 36.38671875 C-4.54726563 35.13955078 -4.50859375 33.89238281 -4.46875 32.60742188 C-4.42234375 30.66706055 -4.42234375 30.66706055 -4.375 28.6875 C-4.33632813 27.37458984 -4.29765625 26.06167969 -4.2578125 24.70898438 C-4.16366883 21.47279563 -4.07803648 18.23661065 -4 15 C-4.928125 14.566875 -4.928125 14.566875 -5.875 14.125 C-8 13 -8 13 -10 11 C-10.43244601 7.10798594 -10.57846465 4.86769698 -8.375 1.5625 C-5.24316508 -0.49791771 -3.68455227 -0.6767545 0 0 Z " fill="#EDC968" transform="translate(658,358)"/>
<path d="M0 0 C0.33 0 0.66 0 1 0 C1.19393875 2.14526099 1.37998676 4.29123677 1.5625 6.4375 C1.66691406 7.63246094 1.77132812 8.82742188 1.87890625 10.05859375 C1.91886719 11.02925781 1.95882812 11.99992187 2 13 C1.67 13.33 1.34 13.66 1 14 C0.83345125 17.12741532 0.71803454 20.24516764 0.625 23.375 C0.30971455 31.80647651 -0.37229023 40.12356564 -1.375 48.5 C-2.96678886 61.81000131 -4.01697762 75.14092844 -4.99755859 88.5078125 C-5.05731873 89.3067543 -5.11707886 90.10569611 -5.1786499 90.92884827 C-5.2909047 92.43320328 -5.40017038 93.93778543 -5.50592041 95.44261169 C-5.75101489 98.72100734 -6.04352017 101.84544616 -7 105 C-7.66 105 -8.32 105 -9 105 C-8.93787323 104.19670258 -8.87574646 103.39340515 -8.81173706 102.56576538 C-8.39240109 97.13109366 -7.97572468 91.69631059 -7.57470703 86.26025391 C-6.26813578 68.69520265 -4.69519443 51.15845133 -3.08129883 33.61962891 C-2.73119636 29.81034834 -2.38328594 26.00086753 -2.03515625 22.19140625 C-1.3588394 14.79408028 -0.68021774 7.3969684 0 0 Z " fill="#BC993D" transform="translate(1015,462)"/>
<path d="M0 0 C2.875 1.625 2.875 1.625 5 4 C5.58338557 7.50031342 5.40455522 9.26794769 3.6875 12.375 C2 14 2 14 -1 14 C-1 14.66 -1 15.32 -1 16 C-7.54420732 15.5152439 -7.54420732 15.5152439 -9.4375 13.375 C-10.22005625 10.0708736 -10.36266839 7.38490495 -10 4 C-7.25657347 -0.1151398 -4.81370572 -0.78591114 0 0 Z " fill="#EFBB41" transform="translate(784,358)"/>
<path d="M0 0 C3.16046385 4.74069578 2.30285095 9.98002506 1.5 15.4375 C0.05475229 21.23856374 -3.46296171 25.23923238 -8 29 C-15.9301063 33.42865936 -23.96878234 34.16061935 -32.875 34.0625 C-33.65875 34.05798828 -34.4425 34.05347656 -35.25 34.04882812 C-37.16670014 34.03714093 -39.08336048 34.01920908 -41 34 C-41.33 33.34 -41.66 32.68 -42 32 C-40.91203125 31.96261719 -39.8240625 31.92523438 -38.703125 31.88671875 C-20.89649062 31.53967214 -20.89649062 31.53967214 -6 23 C-0.90865595 16.52740804 -0.78150115 7.89727473 0 0 Z " fill="#E2B652" transform="translate(1089,469)"/>
<path d="M0 0 C0.66 1.32 1.32 2.64 2 4 C2.66 4 3.32 4 4 4 C3.86068862 7.0836642 3.71240719 10.16683417 3.5625 13.25 C3.52318359 14.12269531 3.48386719 14.99539063 3.44335938 15.89453125 C3.40146484 16.73886719 3.35957031 17.58320312 3.31640625 18.453125 C3.27974854 19.22817383 3.24309082 20.00322266 3.20532227 20.80175781 C3 23 3 23 2 27 C11.9 27 21.8 27 32 27 C32 27.33 32 27.66 32 28 C21.11 28 10.22 28 -1 28 C-1.14285714 8.85714286 -1.14285714 8.85714286 0 0 Z " fill="#D39618" transform="translate(927,539)"/>
<path d="M0 0 C0.94552734 0.16242188 0.94552734 0.16242188 1.91015625 0.328125 C4.06518156 3.56066296 4.3787176 4.57963423 3.91015625 8.328125 C2.78515625 10.140625 2.78515625 10.140625 0.91015625 11.328125 C-2.234703 11.72123241 -4.22266046 11.80367713 -7.02734375 10.265625 C-8.72165548 7.17599773 -7.8293606 4.65595082 -7.08984375 1.328125 C-5.19856033 -0.56315842 -2.51916649 0.0914398 0 0 Z " fill="#E5B035" transform="translate(823.08984375,372.671875)"/>
<path d="M0 0 C3.0625 0.3125 3.0625 0.3125 4.9375 1.4375 C6.56781294 4.15468824 6.39265665 6.20902746 6.0625 9.3125 C4.0625 11.3125 4.0625 11.3125 0.625 11.625 C-2.9375 11.3125 -2.9375 11.3125 -4.9375 10.1875 C-6.46482345 7.32376853 -5.78028671 5.35949809 -4.9375 2.3125 C-2.9375 0.3125 -2.9375 0.3125 0 0 Z " fill="#EBC35F" transform="translate(614.9375,372.6875)"/>
<path d="M0 0 C0 0.99 0 1.98 0 3 C-0.66 3 -1.32 3 -2 3 C-2 3.66 -2 4.32 -2 5 C-13.26311149 10.18103128 -23.06158041 9.22850499 -35 7 C-35 6.67 -35 6.34 -35 6 C-34.35562988 5.96036133 -33.71125977 5.92072266 -33.04736328 5.87988281 C-30.07185568 5.68702091 -27.0987191 5.46865582 -24.125 5.25 C-23.11179687 5.188125 -22.09859375 5.12625 -21.0546875 5.0625 C-14.80079584 4.58143141 -9.6813496 3.42153838 -3.95654297 0.83105469 C-2 0 -2 0 0 0 Z " fill="#E1B449" transform="translate(838,536)"/>
<path d="M0 0 C4.034335 -0.07539006 8.06838507 -0.12917203 12.10327148 -0.16479492 C13.46955526 -0.17967888 14.83579308 -0.19999286 16.2019043 -0.22631836 C28.11228999 -0.44972022 39.19626255 0.72375613 50 6 C50 6.66 50 7.32 50 8 C45.71 8 41.42 8 37 8 C36.34 6.68 35.68 5.36 35 4 C27.92720861 1.36470513 20.47073733 1.56433231 13 1.375 C11.74832031 1.33632813 10.49664063 1.29765625 9.20703125 1.2578125 C6.1381628 1.16410659 3.06929147 1.0783893 0 1 C0 0.67 0 0.34 0 0 Z " fill="#F6E5AB" transform="translate(818,425)"/>
<path d="M0 0 C1.231394 3.69418201 0.64432764 6.2056261 0 10 C-0.33 10 -0.66 10 -1 10 C-1 7.69 -1 5.38 -1 3 C-17.83 3 -34.66 3 -52 3 C-52 2.67 -52 2.34 -52 2 C-45.844473 1.11749842 -39.80764507 0.79633218 -33.59375 0.68359375 C-32.6284436 0.66281265 -31.66313721 0.64203156 -30.6685791 0.62062073 C-27.61245213 0.55571038 -24.55624592 0.49651484 -21.5 0.4375 C-19.41665877 0.39425901 -17.33332529 0.35064302 -15.25 0.30664062 C-10.166746 0.20008975 -5.08341301 0.09866085 0 0 Z " fill="#F6CA57" transform="translate(1007,430)"/>
<path d="M0 0 C0.66 0 1.32 0 2 0 C1.27489568 3.98310727 -0.59620541 7.37866381 -2.4375 10.9375 C-4.93488579 15.7873995 -4.93488579 15.7873995 -7.08984375 20.796875 C-8.21459237 23.51944247 -9.8295785 25.04662065 -12 27 C-11.61030527 16.86793694 -6.32975024 7.73636141 0 0 Z " fill="#E5D08B" transform="translate(758,457)"/>
<path d="M0 0 C0.33 0 0.66 0 1 0 C1.19393875 2.14526099 1.37998676 4.29123677 1.5625 6.4375 C1.66691406 7.63246094 1.77132812 8.82742188 1.87890625 10.05859375 C1.91886719 11.02925781 1.95882812 11.99992187 2 13 C1.67 13.33 1.34 13.66 1 14 C0.8664424 15.43363096 0.79651438 16.87329191 0.75390625 18.3125 C0.70641235 19.66770752 0.70641235 19.66770752 0.65795898 21.05029297 C0.62645752 22.02369629 0.59495605 22.99709961 0.5625 24 C0.19324027 33.75068987 -0.67981739 43.33575058 -2 53 C-2.33 53 -2.66 53 -3 53 C-3.63290106 35.23188886 -1.72486101 17.65994665 0 0 Z " fill="#D8B34F" transform="translate(1015,462)"/>
<path d="M0 0 C0.33 0 0.66 0 1 0 C1.5645312 3.22589259 1.43313144 5.30389591 -0.3125 8.109375 C-4.06479589 12.69923693 -6.94474508 15.17894849 -13 16 C-22.08460472 16.61026352 -22.08460472 16.61026352 -26 14 C-24.83984375 13.96132813 -24.83984375 13.96132813 -23.65625 13.921875 C-14.16775337 13.4227251 -14.16775337 13.4227251 -6 9 C-4.18095184 6.6913612 -2.62562452 4.35664088 -1.12890625 1.828125 C-0.75636719 1.22484375 -0.38382813 0.6215625 0 0 Z " fill="#E7CB71" transform="translate(705,386)"/>
<path d="M0 0 C0 0.66 0 1.32 0 2 C-2.33327441 3.1666372 -3.58236098 3.08993787 -6.17431641 3.02172852 C-7.03505768 3.00163223 -7.89579895 2.98153595 -8.78262329 2.96083069 C-9.71287323 2.93379562 -10.64312317 2.90676056 -11.6015625 2.87890625 C-13.02896255 2.84348976 -13.02896255 2.84348976 -14.48519897 2.80735779 C-17.5319478 2.73063367 -20.57844801 2.64664697 -23.625 2.5625 C-25.68748773 2.50928808 -27.74998769 2.45654762 -29.8125 2.40429688 C-34.87515816 2.27500668 -39.93760505 2.13920166 -45 2 C-45 1.67 -45 1.34 -45 1 C-44.17274414 0.97494385 -43.34548828 0.9498877 -42.49316406 0.92407227 C-38.74528808 0.80803651 -34.99765875 0.685344 -31.25 0.5625 C-29.29707031 0.50352539 -29.29707031 0.50352539 -27.3046875 0.44335938 C-26.05429687 0.40146484 -24.80390625 0.35957031 -23.515625 0.31640625 C-22.36352539 0.27974854 -21.21142578 0.24309082 -20.02441406 0.20532227 C-3.63052311 -0.90763078 -3.63052311 -0.90763078 0 0 Z " fill="#D2A934" transform="translate(772,428)"/>
<path d="M0 0 C0.33 0 0.66 0 1 0 C1.12375 0.78375 1.2475 1.5675 1.375 2.375 C1.79117993 5.14057822 1.79117993 5.14057822 4 7 C4.07519531 9.2590332 4.07519531 9.2590332 3.828125 12.05078125 C3.74046875 13.05947266 3.6528125 14.06816406 3.5625 15.10742188 C3.459375 16.16509766 3.35625 17.22277344 3.25 18.3125 C3.16234375 19.35857422 3.0746875 20.40464844 2.984375 21.48242188 C2.53489824 26.38608845 2.00909064 30.46210247 0 35 C-1.35862973 31.09519751 -0.89469712 27.2898224 -0.5625 23.25 C-0.48418945 22.20392578 -0.48418945 22.20392578 -0.40429688 21.13671875 C-0.27525928 19.42403797 -0.13840386 17.71194934 0 16 C-0.33 16 -0.66 16 -1 16 C-0.67 10.72 -0.34 5.44 0 0 Z " fill="#DFB752" transform="translate(1018,430)"/>
<path d="M0 0 C6.00542953 2.06086945 11.32889935 6.13046094 15.515625 10.86328125 C15.185625 11.52328125 14.855625 12.18328125 14.515625 12.86328125 C13.814375 12.16203125 13.113125 11.46078125 12.390625 10.73828125 C8.08114631 7.09339686 2.83324389 5.28327865 -2.33984375 3.1953125 C-5.484375 1.86328125 -5.484375 1.86328125 -8.484375 -0.13671875 C-5.46294915 -1.64743167 -3.20735516 -0.76045356 0 0 Z " fill="#E9BC50" transform="translate(1100.484375,434.13671875)"/>
<path d="M0 0 C2.22942748 0.14179038 4.45853628 0.28859698 6.6875 0.4375 C7.92886719 0.51871094 9.17023437 0.59992188 10.44921875 0.68359375 C13.38180337 0.94491317 16.13441617 1.34798379 19 2 C15.02389214 4.71486934 10.86098023 4.22440753 6.25 4.125 C5.45722656 4.11597656 4.66445313 4.10695313 3.84765625 4.09765625 C1.89830719 4.07417012 -0.05088575 4.03830137 -2 4 C-1.34 2.68 -0.68 1.36 0 0 Z " fill="#F1CB63" transform="translate(740,425)"/>
<path d="M0 0 C1.14726563 0.00902344 2.29453125 0.01804687 3.4765625 0.02734375 C6.27626748 0.05067462 9.07551695 0.08340768 11.875 0.125 C11.875 0.455 11.875 0.785 11.875 1.125 C4.285 1.125 -3.305 1.125 -11.125 1.125 C-11.455 1.785 -11.785 2.445 -12.125 3.125 C-14.43465848 4.17852843 -16.7679774 5.18219096 -19.125 6.125 C-19.125 5.135 -19.125 4.145 -19.125 3.125 C-21.435 3.455 -23.745 3.785 -26.125 4.125 C-18.55086532 -0.92442312 -8.76662727 -0.13251878 0 0 Z " fill="#CBBF9E" transform="translate(829.125,423.875)"/>
<path d="M0 0 C1 3 1 3 -0.1875 5.5 C-3.4487054 9.99821434 -6.65595844 11.51456354 -11.9609375 12.7265625 C-14.79002645 13.10594224 -17.24876721 12.6878082 -20 12 C-20 11.67 -20 11.34 -20 11 C-19.29875 10.93683594 -18.5975 10.87367188 -17.875 10.80859375 C-10.40715954 9.84467413 -6.00014471 7.66861325 -1 2 C-0.67 1.34 -0.34 0.68 0 0 Z " fill="#E0C067" transform="translate(767,389)"/>
<path d="M0 0 C0.33 0 0.66 0 1 0 C0.86076462 3.25031784 0.71245815 6.50016061 0.5625 9.75 C0.50352539 11.13058594 0.50352539 11.13058594 0.44335938 12.5390625 C0.40146484 13.42851563 0.35957031 14.31796875 0.31640625 15.234375 C0.27974854 16.05131836 0.24309082 16.86826172 0.20532227 17.70996094 C0.00865725 19.9034423 -0.40300594 21.88396413 -1 24 C-1.66 24 -2.32 24 -3 24 C-1.47016275 2.9403255 -1.47016275 2.9403255 0 0 Z " fill="#D09E2D" transform="translate(1009,543)"/>
<path d="M0 0 C1.53637695 1.1809082 1.53637695 1.1809082 3 3 C2.97338867 5.36010742 2.97338867 5.36010742 2.41796875 8.10546875 C2.22783203 9.08837891 2.03769531 10.07128906 1.84179688 11.08398438 C1.62587891 12.10814453 1.40996094 13.13230469 1.1875 14.1875 C0.98318359 15.22326172 0.77886719 16.25902344 0.56835938 17.32617188 C0.06079889 19.88758178 -0.46249899 22.44473473 -1 25 C-1.33 25 -1.66 25 -2 25 C-1.8608331 21.58302762 -1.71250415 18.16651243 -1.5625 14.75 C-1.52318359 13.78191406 -1.48386719 12.81382812 -1.44335938 11.81640625 C-1.40146484 10.88183594 -1.35957031 9.94726562 -1.31640625 8.984375 C-1.27974854 8.12553711 -1.24309082 7.26669922 -1.20532227 6.38183594 C-1.01296486 4.15039857 -0.61153756 2.15017476 0 0 Z " fill="#D8B754" transform="translate(934,473)"/>
<path d="M0 0 C7.49107412 3.25290901 13.15506805 7.31036818 19 13 C16 13 16 13 13.5625 11 C11.01622296 8.58981943 11.01622296 8.58981943 7 9 C6.6596875 8.1028125 6.6596875 8.1028125 6.3125 7.1875 C4.66692986 4.4448831 2.72964203 3.58031907 0 2 C0 1.34 0 0.68 0 0 Z " fill="#E4C984" transform="translate(868,431)"/>
<path d="M0 0 C0 0.66 0 1.32 0 2 C-1.0725 2.28875 -2.145 2.5775 -3.25 2.875 C-6.82387571 3.80789174 -6.82387571 3.80789174 -9.1875 5.1875 C-11.49823506 6.22334675 -12.66370893 5.83438967 -15 5 C-14.67 4.01 -14.34 3.02 -14 2 C-12.22978678 1.663389 -10.45880326 1.33082707 -8.6875 1 C-7.70136719 0.814375 -6.71523438 0.62875 -5.69921875 0.4375 C-3 0 -3 0 0 0 Z " fill="#E7DCB2" transform="translate(810,427)"/>
<path d="M0 0 C2.91985691 4.37978537 2.38888333 8.47225833 1.6171875 13.48828125 C0.71256137 17.98987316 0.71256137 17.98987316 0 20 C-0.66 20.33 -1.32 20.66 -2 21 C-3.02120344 18.34487105 -3.05826634 17.17063713 -2.125 14.4375 C-0.57071602 9.68829894 -0.33570892 4.96495828 0 0 Z " fill="#D9AF49" transform="translate(1089,469)"/>
<path d="M0 0 C0.33 0 0.66 0 1 0 C1.11709643 3.52054914 1.1875469 7.04059112 1.25 10.5625 C1.28351562 11.55314453 1.31703125 12.54378906 1.3515625 13.56445312 C1.43678096 19.97714186 0.74243422 23.7473315 -3 29 C-3.99 28.34 -4.98 27.68 -6 27 C-5.01 26.34 -4.02 25.68 -3 25 C-0.27684788 20.30395196 -0.55415882 14.96895258 -0.375 9.6875 C-0.31699219 8.29047852 -0.31699219 8.29047852 -0.2578125 6.86523438 C-0.16393687 4.57701593 -0.07825491 2.28879705 0 0 Z " fill="#E4C465" transform="translate(654,381)"/>
<path d="M0 0 C2.31 0 4.62 0 7 0 C6 2 6 2 2 4 C2 9.94 2 15.88 2 22 C1.67 22 1.34 22 1 22 C0.67 14.74 0.34 7.48 0 0 Z " fill="#FAD765" transform="translate(654,374)"/>
<path d="M0 0 C0.66 0.33 1.32 0.66 2 1 C1.30593453 4.86386961 0.28017853 8.51884917 -0.9375 12.25 C-1.27652344 13.30703125 -1.61554687 14.3640625 -1.96484375 15.453125 C-3 18 -3 18 -5 19 C-5.33 18.01 -5.66 17.02 -6 16 C-5.34 16 -4.68 16 -4 16 C-3.896875 15.030625 -3.79375 14.06125 -3.6875 13.0625 C-3.05370121 8.51406161 -1.55244173 4.30582896 0 0 Z " fill="#E3AD33" transform="translate(818,386)"/>
<path d="M0 0 C0 0.66 0 1.32 0 2 C-2.97 2 -5.94 2 -9 2 C-9.66 3.32 -10.32 4.64 -11 6 C-11.97581759 7.35113205 -12.97029741 8.68946944 -14 10 C-13.74919159 6.32147666 -13.38558753 4.44400988 -10.9375 1.625 C-6.98286986 -0.56266774 -4.47232658 -0.30320858 0 0 Z " fill="#D8B963" transform="translate(722,328)"/>
<path d="M0 0 C0.33 0.99 0.66 1.98 1 3 C0.360625 3.598125 -0.27875 4.19625 -0.9375 4.8125 C-3.20310389 6.90810337 -3.20310389 6.90810337 -4 10 C-6.875 11.75 -6.875 11.75 -10 13 C-10.99 12.67 -11.98 12.34 -13 12 C-12.48050781 11.63648438 -11.96101562 11.27296875 -11.42578125 10.8984375 C-6.90269987 7.63780582 -3.37935811 4.43540752 0 0 Z " fill="#DAB861" transform="translate(851,523)"/>
<path d="M0 0 C3.63 0 7.26 0 11 0 C11 0.33 11 0.66 11 1 C8.36 1.33 5.72 1.66 3 2 C2.690625 2.928125 2.38125 3.85625 2.0625 4.8125 C1.375 6.875 0.6875 8.9375 0 11 C-0.33 11 -0.66 11 -1 11 C-1.125 3.375 -1.125 3.375 0 0 Z " fill="#FAD474" transform="translate(908,432)"/>
<path d="M0 0 C0.33 0.99 0.66 1.98 1 3 C-0.29296875 5.0078125 -0.29296875 5.0078125 -2.1875 7.125 C-2.79980469 7.82882812 -3.41210938 8.53265625 -4.04296875 9.2578125 C-6.08877269 11.07902718 -7.32606465 11.60869239 -10 12 C-9.61328125 11.55269531 -9.2265625 11.10539062 -8.828125 10.64453125 C-5.81609925 7.1478974 -2.85678969 3.62592537 0 0 Z " fill="#E0B642" transform="translate(807,395)"/>
<path d="M0 0 C0.66 0 1.32 0 2 0 C1.23902349 5.13659144 -2.36120673 8.54314639 -6 12 C-6 8.40941456 -5.10368497 7.25212529 -3.125 4.3125 C-2.59132813 3.50425781 -2.05765625 2.69601562 -1.5078125 1.86328125 C-1.01023437 1.24839844 -0.51265625 0.63351562 0 0 Z " fill="#DACA99" transform="translate(758,457)"/>
<path d="M0 0 C0 0.66 0 1.32 0 2 C-1.269553 2.64834654 -2.54069706 3.29357815 -3.8125 3.9375 C-4.52019531 4.29714844 -5.22789062 4.65679687 -5.95703125 5.02734375 C-8 6 -8 6 -11 7 C-11.66 6.34 -12.32 5.68 -13 5 C-11.21046815 4.16209211 -9.41830305 3.32980604 -7.625 2.5 C-6.62726562 2.0359375 -5.62953125 1.571875 -4.6015625 1.09375 C-2 0 -2 0 0 0 Z " fill="#DCD3AB" transform="translate(796,430)"/>
<path d="M0 0 C0.99 0.33 1.98 0.66 3 1 C1.5361389 5.39158329 -0.97831338 5.87947433 -5 8 C-5 5 -5 5 -2.5 2.3125 C-1.675 1.549375 -0.85 0.78625 0 0 Z " fill="#E5D5A3" transform="translate(767,447)"/>
<path d="M0 0 C0.33 0 0.66 0 1 0 C1.22397733 2.04000973 1.42848537 4.08216189 1.625 6.125 C1.74101563 7.26195312 1.85703125 8.39890625 1.9765625 9.5703125 C2.00112837 13.16511799 1.32167811 15.680671 0 19 C-0.33 19 -0.66 19 -1 19 C-0.67 12.73 -0.34 6.46 0 0 Z " fill="#B49A52" transform="translate(1015,462)"/>
<path d="M0 0 C0 2 0 2 -1.875 4.125 C-4 6 -4 6 -6 6 C-6 4.02 -6 2.04 -6 0 C-3.50907189 -1.24546405 -2.58919267 -0.7767578 0 0 Z " fill="#ECC768" transform="translate(623,387)"/>
<path d="M0 0 C0.33 0 0.66 0 1 0 C1.87557031 6.54311329 2.3548854 11.76647981 0 18 C-0.33 18 -0.66 18 -1 18 C-0.505 9.09 -0.505 9.09 0 0 Z " fill="#3A3B43" transform="translate(717,494)"/>
<path d="M0 0 C0.99 0.33 1.98 0.66 3 1 C2.34 2.32 1.68 3.64 1 5 C-0.65 5 -2.3 5 -4 5 C-2.25 1.125 -2.25 1.125 0 0 Z " fill="#F6E8B4" transform="translate(782,436)"/>
<path d="M0 0 C0.33 0 0.66 0 1 0 C1.33 4.62 1.66 9.24 2 14 C1.34 14 0.68 14 0 14 C-0.33 15.32 -0.66 16.64 -1 18 C-0.505 9.09 -0.505 9.09 0 0 Z " fill="#796631" transform="translate(927,539)"/>
<path d="M0 0 C0.33 0.66 0.66 1.32 1 2 C-0.093125 2.309375 -1.18625 2.61875 -2.3125 2.9375 C-4.55407994 3.58337897 -6.7869351 4.2623117 -9 5 C-8.625 3.0625 -8.625 3.0625 -8 1 C-5.29120665 -0.35439668 -2.99066732 -0.06501451 0 0 Z " fill="#E8BE51" transform="translate(784,358)"/>
<path d="M0 0 C-3.90028225 2.60018816 -7.47434569 2.15085514 -12 2 C-12 1.34 -12 0.68 -12 0 C-7.91556885 -1.53166168 -4.20544343 -0.63081652 0 0 Z " fill="#F7CB49" transform="translate(759,427)"/>
<path d="M0 0 C2.97 0.33 5.94 0.66 9 1 C9.33 1.99 9.66 2.98 10 4 C6.62294375 3.46274105 3.303314 2.88935377 0 2 C0 1.34 0 0.68 0 0 Z " fill="#F7E7B2" transform="translate(845,425)"/>
<path d="M0 0 C0.33 0 0.66 0 1 0 C1 3.96 1 7.92 1 12 C0.01 12.33 -0.98 12.66 -2 13 C-1.34 8.71 -0.68 4.42 0 0 Z " fill="#AD7409" transform="translate(962,554)"/>
<path d="M0 0 C0.33 0 0.66 0 1 0 C1.125 2.875 1.125 2.875 1 6 C0.34 6.66 -0.32 7.32 -1 8 C-3.125 7.625 -3.125 7.625 -5 7 C-4.360625 6.21625 -3.72125 5.4325 -3.0625 4.625 C-1.01857687 2.20460719 -1.01857687 2.20460719 0 0 Z " fill="#DDC270" transform="translate(705,386)"/>
<path d="M0 0 C4.08378283 0.74250597 8.01939223 1.82923301 12 3 C12 3.33 12 3.66 12 4 C4.61538462 4.49230769 4.61538462 4.49230769 1.5 2 C1.005 1.34 0.51 0.68 0 0 Z " fill="#EDC361" transform="translate(799,538)"/>
<path d="M0 0 C0 0.99 0 1.98 0 3 C-3.21451269 4.60725635 -6.43612536 4.05748185 -10 4 C-8.66666667 3.33333333 -7.33333333 2.66666667 -6 2 C-5.29875 1.62875 -4.5975 1.2575 -3.875 0.875 C-2 0 -2 0 0 0 Z " fill="#CBA654" transform="translate(838,536)"/>
<path d="M0 0 C1.485 0.99 1.485 0.99 3 2 C4.65549531 2.38499891 6.3222433 2.72793135 8 3 C7.34 3.66 6.68 4.32 6 5 C5.67 5.99 5.34 6.98 5 8 C4.34 7.01 3.68 6.02 3 5 C2.01 4.67 1.02 4.34 0 4 C0 2.68 0 1.36 0 0 Z " fill="#1E1B1B" transform="translate(815,381)"/>
<path d="M0 0 C0 0.66 0 1.32 0 2 C-6.625 4 -6.625 4 -10 4 C-6.95860798 0.50239917 -4.5534811 0 0 0 Z " fill="#FDF1BE" transform="translate(810,427)"/>
<path d="M0 0 C1.65 0 3.3 0 5 0 C5 0.66 5 1.32 5 2 C1.78548731 3.60725635 -1.43612536 3.05748185 -5 3 C-5 2.67 -5 2.34 -5 2 C-3.35 2 -1.7 2 0 2 C0 1.34 0 0.68 0 0 Z " fill="#C7960E" transform="translate(767,428)"/>
<path d="M0 0 C0.66 1.32 1.32 2.64 2 4 C0.68 5.32 -0.64 6.64 -2 8 C-2.66 7.67 -3.32 7.34 -4 7 C-2.68 4.69 -1.36 2.38 0 0 Z " fill="#DDBD59" transform="translate(772,381)"/>
<path d="M0 0 C2.31 0 4.62 0 7 0 C5.73223544 2.53552912 4.53176935 2.84919575 2 4 C1.01 4.495 1.01 4.495 0 5 C0 3.35 0 1.7 0 0 Z " fill="#FCE17F" transform="translate(654,374)"/>
<path d="M0 0 C0.33 0.66 0.66 1.32 1 2 C0.22265625 3.7265625 0.22265625 3.7265625 -0.9375 5.625 C-1.618125 6.73875 -2.29875 7.8525 -3 9 C-3.66 8.67 -4.32 8.34 -5 8 C-4.67 7.01 -4.34 6.02 -4 5 C-3.34 5 -2.68 5 -2 5 C-1.34 3.35 -0.68 1.7 0 0 Z " fill="#FBE398" transform="translate(756,463)"/>
</svg>
